<?xml version="1.0" standalone="no"?>
<!DOCTYPE svg PUBLIC "-//W3C//DTD SVG 20010904//EN"
 "http://www.w3.org/TR/2001/REC-SVG-20010904/DTD/svg10.dtd">
<svg version="1.0" xmlns="http://www.w3.org/2000/svg"
 width="1024.000000pt" height="1024.000000pt" viewBox="0 0 1024.000000 1024.000000"
 preserveAspectRatio="xMidYMid meet">

<g transform="translate(0.000000,1024.000000) scale(0.100000,-0.100000)"
fill="#000000" stroke="none">
<path d="M5255 8939 c-141 -18 -334 -79 -475 -149 -419 -209 -766 -615 -970
-1131 -142 -361 -193 -617 -207 -1040 -3 -110 -9 -199 -13 -199 -22 0 -721
485 -848 588 -29 23 -56 40 -61 38 -17 -11 -34 -239 -28 -380 16 -379 170
-712 446 -968 l70 -65 -16 -94 c-25 -157 -6 -300 63 -448 19 -41 34 -77 34
-81 0 -10 -90 -121 -405 -500 -143 -172 -333 -403 -422 -512 l-162 -199 40
-117 c22 -64 58 -148 78 -187 29 -53 37 -75 30 -92 -14 -38 -31 -226 -24 -273
10 -72 51 -146 99 -179 31 -21 46 -41 54 -69 7 -22 32 -66 55 -99 91 -122 214
-211 365 -261 70 -24 92 -26 232 -26 138 0 164 3 238 26 l83 25 59 -44 c108
-81 205 -237 235 -378 19 -89 19 -260 0 -348 -28 -131 -105 -279 -202 -387
-25 -27 -41 -50 -36 -50 29 0 139 25 208 46 173 55 313 142 448 279 103 103
173 204 237 338 100 210 130 349 130 599 -1 104 -6 205 -15 253 -8 43 -12 81
-10 83 2 2 48 10 102 17 114 16 106 20 198 -100 116 -153 195 -325 238 -515
29 -131 31 -424 3 -550 -27 -125 -62 -231 -111 -332 l-42 -90 56 7 c457 56
945 221 1332 453 261 155 365 236 564 436 211 213 380 451 531 751 l76 150 -1
130 c-5 390 -104 842 -271 1232 -97 225 -229 456 -362 633 -38 50 -68 92 -68
94 0 2 30 23 68 47 318 200 566 485 693 796 93 226 124 399 116 638 -4 107
-12 193 -27 260 -20 92 -62 230 -74 242 -6 7 -490 -265 -656 -368 -312 -195
-539 -362 -701 -516 -53 -51 -101 -93 -106 -93 -5 0 -45 20 -89 45 -43 25 -87
48 -96 51 -24 7 -23 25 7 130 108 380 321 726 600 975 160 142 305 228 495
292 138 47 241 61 403 54 202 -8 370 -63 521 -171 112 -81 238 -231 308 -371
103 -203 142 -470 102 -691 -25 -134 -24 -162 9 -190 70 -60 119 -17 175 157
88 268 118 519 88 729 -92 655 -507 1180 -1116 1416 -200 77 -380 107 -640
108 -195 0 -302 -13 -490 -58 l-94 -23 -101 53 c-183 96 -327 144 -515 169
-115 16 -325 18 -435 4z m448 -220 l52 -12 -73 -18 c-99 -26 -195 -63 -268
-104 -59 -33 -63 -34 -90 -20 -34 17 -89 18 -159 1 l-50 -12 38 -18 c21 -10
47 -30 58 -44 l20 -25 -28 -30 c-16 -16 -41 -38 -56 -49 l-28 -20 -49 26 c-42
23 -61 27 -132 27 -46 0 -96 -4 -113 -9 -29 -8 -29 -8 35 -39 68 -32 150 -96
150 -116 0 -7 -24 -38 -53 -69 l-52 -58 -59 40 c-66 46 -164 78 -262 88 l-68
7 60 67 c188 211 482 367 753 398 91 10 301 4 374 -11z m1447 -196 c175 -28
365 -95 513 -181 72 -42 202 -139 246 -186 l34 -35 -75 29 c-152 59 -361 101
-498 99 l-55 0 -25 -51 c-14 -28 -39 -61 -56 -74 l-31 -24 5 55 c2 30 2 66 -2
80 -6 24 -8 25 -96 25 l-90 0 0 -36 c0 -58 -21 -112 -60 -157 l-36 -41 4 36
c5 46 -21 138 -49 169 -11 13 -18 19 -15 12 4 -7 -18 -15 -66 -23 -40 -6 -79
-13 -86 -16 -7 -2 -22 1 -32 6 -18 9 -18 8 -2 -23 24 -48 27 -153 7 -223 l-17
-59 -12 45 c-21 80 -90 164 -178 214 -33 19 -33 19 -15 -1 9 -11 17 -24 17
-30 0 -19 -126 -56 -162 -47 l-33 7 39 -43 c21 -23 47 -63 59 -89 23 -52 33
-156 22 -228 l-7 -48 -20 50 c-25 63 -84 142 -140 188 -73 59 -155 92 -110 44
30 -32 28 -44 -10 -52 -18 -4 -50 -16 -70 -26 -21 -11 -52 -19 -69 -19 l-32 0
39 -28 c58 -43 113 -108 141 -167 22 -50 59 -222 50 -232 -3 -2 -17 18 -33 44
-45 79 -133 157 -226 202 -46 22 -94 43 -108 47 -21 6 -19 1 19 -36 l43 -42
-63 -22 c-35 -12 -74 -28 -86 -34 -12 -7 -32 -12 -44 -12 -17 0 -7 -10 37 -36
120 -72 180 -151 225 -297 17 -54 29 -100 26 -103 -2 -2 -17 14 -32 36 -71
103 -207 195 -322 220 -27 6 -59 13 -72 16 -20 4 -17 -1 17 -28 22 -18 41 -35
41 -39 1 -5 -41 -25 -159 -74 -53 -23 -54 -24 -25 -31 115 -27 248 -140 309
-262 58 -117 57 -124 -13 -60 -78 72 -183 124 -304 149 -121 25 -126 24 -99
-4 l22 -24 -37 -11 c-21 -7 -74 -32 -118 -57 l-80 -44 40 -1 c103 -1 262 -77
355 -170 59 -59 139 -160 126 -160 -3 0 -25 13 -49 30 -128 86 -238 120 -387
120 -87 0 -101 -2 -91 -14 10 -12 6 -16 -22 -25 -32 -11 -197 -108 -197 -116
0 -2 22 -1 49 2 150 18 389 -83 516 -217 l40 -42 -53 27 c-217 108 -506 78
-671 -71 -29 -26 -50 -48 -48 -50 2 -2 24 3 48 11 24 9 89 20 144 25 108 11
295 3 273 -11 -7 -5 -29 -9 -48 -9 -115 -1 -427 -105 -580 -194 -51 -30 -76
-40 -78 -31 -4 19 55 273 95 405 122 403 369 852 664 1205 367 439 793 723
1249 833 252 61 455 72 680 35z m-2579 -457 c62 -14 161 -57 202 -90 18 -14
16 -19 -30 -104 l-48 -90 -40 21 c-93 47 -148 60 -278 66 l-127 6 46 80 c25
44 53 87 60 95 8 8 40 18 72 21 31 3 62 7 67 7 6 1 40 -5 76 -12z m-91 -435
c30 -11 66 -30 79 -40 l24 -18 -34 -84 c-18 -46 -34 -85 -34 -86 0 -1 -41 12
-90 29 -75 25 -105 31 -180 31 -49 0 -109 -4 -132 -8 -30 -5 -43 -3 -43 5 0
20 52 144 68 162 37 43 244 48 342 9z m-140 -406 c25 -9 54 -22 64 -30 19 -15
19 -16 -3 -82 -13 -38 -24 -73 -26 -80 -3 -8 -21 -6 -65 8 -75 23 -187 25
-285 4 -38 -8 -71 -15 -73 -15 -3 0 5 38 25 112 14 53 18 58 57 73 103 38 217
42 306 10z m-91 -406 c54 -11 55 -13 36 -75 -2 -8 -49 -13 -132 -16 -93 -4
-144 -10 -185 -25 l-58 -20 0 21 c1 65 26 84 145 111 76 17 131 18 194 4z
m3081 -33 c0 -2 -32 -25 -70 -50 -135 -90 -326 -251 -491 -415 -217 -218 -333
-364 -443 -559 -49 -87 -129 -263 -122 -269 8 -8 216 67 293 105 239 121 541
374 660 553 14 21 28 39 30 39 11 0 -93 -180 -146 -254 -234 -329 -520 -532
-1006 -716 l-30 -12 25 -14 c61 -34 187 -65 288 -71 l102 -6 69 -91 c81 -107
183 -272 251 -407 209 -413 323 -845 346 -1304 l7 -130 -48 -120 c-26 -66 -55
-135 -65 -154 l-17 -34 -7 139 c-9 179 -46 391 -90 524 l-35 105 6 -70 c11
-115 7 -462 -6 -570 -22 -177 -63 -318 -127 -430 -32 -56 -67 -105 -76 -105
-2 0 4 39 15 87 26 123 29 468 4 597 -9 49 -18 90 -20 92 -2 2 -9 -47 -15
-109 -46 -416 -188 -798 -354 -953 -38 -36 -117 -94 -128 -94 -4 0 15 44 42
97 82 164 137 360 172 607 7 49 4 46 -29 -39 -58 -148 -177 -352 -207 -355 -4
0 4 33 18 72 36 104 99 360 128 519 40 221 50 340 51 606 0 138 1 250 2 249 1
-1 13 -67 27 -146 25 -148 45 -380 47 -543 l1 -92 14 50 c7 28 20 95 28 150
74 507 -34 1026 -292 1404 -46 67 -160 197 -167 190 -1 -2 6 -38 17 -79 28
-107 36 -390 15 -515 -35 -199 -109 -390 -201 -519 -61 -85 -190 -205 -273
-255 -150 -89 -322 -144 -553 -176 -549 -77 -725 -135 -1122 -373 -239 -143
-398 -204 -563 -219 -131 -11 -277 28 -354 94 l-35 30 112 7 c205 12 387 61
560 151 143 73 236 149 367 300 90 104 109 172 60 220 -45 46 -72 36 -191 -71
-228 -202 -439 -307 -694 -345 -142 -20 -378 -1 -454 38 -28 15 -29 16 -22 74
11 114 37 137 241 224 131 56 166 79 191 127 22 42 18 110 -9 149 -49 73 -110
75 -188 5 -53 -48 -135 -84 -210 -93 -64 -8 -105 16 -131 74 l-20 46 29 41
c34 49 606 736 709 851 96 109 271 327 321 401 52 77 143 257 177 352 14 40
26 76 26 79 0 8 -62 -47 -173 -154 -54 -52 -101 -93 -103 -91 -7 7 -41 155
-68 292 l-26 129 31 56 c67 119 328 476 339 464 4 -4 13 -26 20 -48 7 -22 30
-77 52 -123 l39 -82 55 67 c63 78 284 303 297 303 5 0 7 -6 4 -14 -3 -8 -13
-74 -23 -147 -13 -104 -16 -183 -12 -357 3 -122 8 -225 11 -228 3 -3 45 27 94
67 174 144 366 254 546 314 163 54 236 66 429 72 184 6 281 -4 443 -45 l70
-18 1 -165 c1 -154 15 -257 43 -306 3 -7 30 33 61 94 101 195 208 340 395 531
261 270 563 484 905 644 132 61 130 60 130 54z m-1421 -3749 c2 -239 -30 -444
-100 -651 -79 -234 -173 -399 -291 -512 -56 -54 -149 -114 -177 -114 -6 0 16
39 49 88 169 250 325 618 410 965 32 132 70 363 70 428 0 20 3 52 7 70 12 55
31 -111 32 -274z"/>
<path d="M5005 5536 c-247 -81 -383 -235 -516 -583 -73 -193 -106 -321 -158
-620 -21 -123 -21 -123 88 21 141 187 307 464 393 655 l28 64 31 -62 c107
-213 418 -211 524 4 21 42 27 145 13 196 -9 30 -22 25 150 50 46 6 80 15 75
19 -4 4 -48 22 -98 38 -174 59 -367 66 -487 18 l-61 -25 44 45 c58 60 169 128
264 163 l77 28 -38 6 c-22 4 -88 7 -149 6 -87 0 -125 -5 -180 -23z"/>
<path d="M3546 4806 l-46 -54 39 -31 39 -31 46 52 46 52 -32 33 c-18 18 -35
33 -39 33 -3 0 -27 -24 -53 -54z"/>
<path d="M3359 4603 c-24 -27 -66 -74 -93 -106 l-49 -58 37 -37 38 -37 94 100
c52 55 94 105 94 111 0 10 -61 74 -72 74 -3 0 -25 -21 -49 -47z"/>
<path d="M3069 4278 c-24 -28 -72 -86 -106 -127 l-63 -75 33 -27 c17 -16 37
-28 42 -29 10 0 97 91 195 203 l33 38 -33 35 c-19 18 -39 34 -45 34 -7 0 -32
-23 -56 -52z"/>
<path d="M5755 4174 c-9 -22 -21 -49 -25 -61 -5 -12 -27 -51 -49 -87 -140
-230 -349 -386 -663 -491 -104 -35 -132 -48 -82 -41 16 3 67 10 114 17 111 15
240 58 353 116 151 78 289 233 336 376 19 57 43 197 35 206 -1 2 -10 -14 -19
-35z"/>
</g>
</svg>
